# xmcd
#
# Track frame offsets:
#	151
#	13066
#	33079
#	44297
#	56844
#	69125
#	79022
#
# Disc length: 1360 seconds
#
# Revision: 1
# Processed by: cddbd v1.5.2PL0 Copyright (c) Steve Scherf et al.
# Submitted via: audiograbber 1.83.01
#
DISCID=4d054e07
DTITLE=MIGUEL FLORES - NICE AND EASY XVIII
DYEAR=1999
DGENRE=Pop
TTITLE0=WHAT IN THE WORLD'S COME OVER YOU
TTITLE1=IT STONED  ME
TTITLE2=ON THE HORIZON
TTITLE3=THE DOCK OF THE BAY
TTITLE4=OVER THE RAINBOW
TTITLE5=AIN'T NO SUNSHINE WHEN SHE'S GONE
TTITLE6=UNCHAIN MY HEART
EXTD=PRODUIT PAR MIGUEL FLORES/ KARSENTI ALEXANDRE EN 1999
EXTT0=(J.Scott)
EXTT1=(Van Morrison)
EXTT2=(Leiber-Stoller)
EXTT3=(Steve Cropper-Otis Redding)
EXTT4=(Arlem-Harburg)
EXTT5=(Bill Withers)
EXTT6=(Janoes-James)
PLAYORDER=
